<?xml version="1.0" encoding="UTF-8"?><!DOCTYPE svg PUBLIC "-//W3C//DTD SVG 1.1 Basic//EN" "http://www.w3.org/Graphics/SVG/1.1/DTD/svg11-basic.dtd"><svg version="1.1" xmlns="http://www.w3.org/2000/svg" xmlns:xlink="http://www.w3.org/1999/xlink" class="mtk-elevation-svg" viewBox="0 0 2000 562.5" preserveAspectRatio="xMidYMid meet" style="overflow: hidden; position: relative;"><path fill="none" stroke="#000" d="M210,138.46153846153862L1900,138.46153846153862" class="mtk-elevation-y-grid" style="-webkit-tap-highlight-color: rgba(0, 0, 0, 0); pointer-events: none; transform: translate(0px, 20px);" stroke-width="1px"></path><path fill="none" stroke="#000" d="M210,276.92307692307674L1900,276.92307692307674" class="mtk-elevation-y-grid" style="-webkit-tap-highlight-color: rgba(0, 0, 0, 0); pointer-events: none; transform: translate(0px, 20px);" stroke-width="1px"></path><path fill="none" stroke="#000" d="M210,415.3846153846154L1900,415.3846153846154" class="mtk-elevation-y-grid" style="-webkit-tap-highlight-color: rgba(0, 0, 0, 0); pointer-events: none; transform: translate(0px, 20px);" stroke-width="1px"></path><path fill="none" stroke="#000" d="M1857.2237744407519,40L1857.2237744407519,450" class="mtk-elevation-x-grid" style="-webkit-tap-highlight-color: rgba(0, 0, 0, 0); pointer-events: none; transform: translate(0px, 20px);" stroke-width="1px"></path><path fill="none" stroke="#000" d="M1527.779019552601,40L1527.779019552601,450" class="mtk-elevation-x-grid" style="-webkit-tap-highlight-color: rgba(0, 0, 0, 0); pointer-events: none; transform: translate(0px, 20px);" stroke-width="1px"></path><path fill="none" stroke="#000" d="M1198.3342646644505,40L1198.3342646644505,450" class="mtk-elevation-x-grid" style="-webkit-tap-highlight-color: rgba(0, 0, 0, 0); pointer-events: none; transform: translate(0px, 20px);" stroke-width="1px"></path><path fill="none" stroke="#000" d="M868.8895097763015,40L868.8895097763015,450" class="mtk-elevation-x-grid" style="-webkit-tap-highlight-color: rgba(0, 0, 0, 0); pointer-events: none; transform: translate(0px, 20px);" stroke-width="1px"></path><path fill="none" stroke="#000" d="M539.4447548881508,40L539.4447548881508,450" class="mtk-elevation-x-grid" style="-webkit-tap-highlight-color: rgba(0, 0, 0, 0); pointer-events: none; transform: translate(0px, 20px);" stroke-width="1px"></path><desc style="-webkit-tap-highlight-color: rgba(0, 0, 0, 0); transform: translate(0px, 20px);">Created with Raphaël 2.2.0</desc><defs style="-webkit-tap-highlight-color: rgba(0, 0, 0, 0); transform: translate(0px, 20px);"><linearGradient id="svgGradient" x2="0%" y2="100%"><stop offset="0%" stop-color="rgb(207,225,242)" stop-opacity="1" style=""></stop><stop offset="100%" stop-color="rgb(255,255,255)" stop-opacity="0.8" style=""></stop></linearGradient></defs><path fill="url(#svgGradient)" stroke="#000000" d="M210,450L210,397.03846153846155C214.69444444444446,395.1346153846155,233.4722222222222,387.5192307692307,238.16666666666666,385.61538461538464C242.86111111111111,383.7115384615385,233.47222222222226,392.7115384615385,238.16666666666666,385.61538461538464C242.8611111111111,378.5192307692307,256.94444444444446,360.1153846153847,266.3333333333333,343.03846153846155C275.72222222222223,325.9615384615385,285.1111111111111,298.2115384615385,294.5,283.1538461538462C303.8888888888889,268.09615384615387,313.27777777777777,262.3269230769231,322.6666666666667,252.6923076923077C332.0555555555556,243.0576923076923,341.4444444444444,244.7307692307692,350.83333333333337,225.34615384615384C360.2222222222222,205.96153846153848,369.61111111111114,147.80769230769235,379,136.38461538461542C388.38888888888886,124.9615384615385,397.77777777777777,154.84615384615384,407.16666666666663,156.80769230769232C416.5555555555556,158.7692307692308,425.9444444444444,157.9038461538462,435.3333333333333,148.1538461538462C444.72222222222223,138.4038461538462,454.11111111111114,100.03846153846155,463.5,98.30769230769232C472.88888888888886,96.5769230769231,482.2777777777778,126.75,491.66666666666663,137.76923076923077C501.0555555555555,148.78846153846155,510.44444444444434,161.53846153846152,519.8333333333333,164.4230769230769C529.2222222222222,167.3076923076923,538.611111111111,159.05769230769232,548,155.0769230769231C557.388888888889,151.09615384615387,566.7777777777778,139.67307692307693,576.1666666666667,140.53846153846155C585.5555555555557,141.40384615384616,594.9444444444445,154.15384615384616,604.3333333333334,160.26923076923077C613.7222222222222,166.3846153846154,623.111111111111,169.1538461538461,632.5,177.23076923076923C641.8888888888888,185.3076923076923,651.2777777777777,197.1923076923077,660.6666666666667,208.73076923076923C670.0555555555557,220.26923076923072,679.4444444444447,229.96153846153845,688.8333333333335,246.46153846153845C698.2222222222223,262.96153846153845,707.6111111111112,290.71153846153845,717.0000000000001,307.7307692307692C726.388888888889,324.74999999999994,735.7777777777778,346.15384615384613,745.1666666666667,348.5769230769231C754.5555555555555,351,763.9444444444445,322.6730769230769,773.3333333333334,322.2692307692308C782.7222222222222,321.86538461538464,792.111111111111,345.6923076923078,801.5,346.1538461538462C810.8888888888888,346.6153846153847,820.2777777777778,330.2884615384615,829.6666666666666,325.03846153846155C839.0555555555555,319.78846153846155,848.4444444444445,323.36538461538464,857.8333333333333,314.6538461538462C867.2222222222222,305.94230769230774,876.611111111111,290.1346153846154,885.9999999999999,272.7692307692308C895.3888888888887,255.4038461538462,904.7777777777777,226.67307692307693,914.1666666666665,210.46153846153848C923.5555555555553,194.25000000000003,932.9444444444443,176.59615384615384,942.3333333333331,175.5C951.7222222222221,174.40384615384616,961.1111111111109,198,970.4999999999998,203.8846153846154C979.8888888888886,209.7692307692308,989.2777777777775,204.5192307692308,998.6666666666664,210.80769230769232C1008.0555555555552,217.0961538461538,1017.444444444444,231.28846153846155,1026.833333333333,241.6153846153846C1036.222222222222,251.94230769230765,1045.6111111111106,265.5,1054.9999999999995,272.7692307692308C1064.3888888888885,280.0384615384616,1073.7777777777776,273.9230769230769,1083.1666666666663,285.2307692307692C1092.5555555555552,296.5384615384615,1101.9444444444441,332.94230769230774,1111.333333333333,340.61538461538464C1120.722222222222,348.2884615384616,1130.1111111111106,346.9038461538462,1139.4999999999995,331.2692307692308C1148.8888888888885,315.6346153846154,1158.2777777777771,275.88461538461536,1167.666666666666,246.80769230769232C1177.055555555555,217.73076923076925,1186.4444444444437,190.2692307692308,1195.8333333333328,156.80769230769232C1205.2222222222217,123.34615384615387,1214.6111111111106,55.73076923076923,1223.9999999999995,46.03846153846155C1233.3888888888885,36.34615384615386,1242.7777777777771,99.28846153846159,1252.166666666666,98.65384615384619C1261.555555555555,98.01923076923079,1270.9444444444437,40.557692307692314,1280.3333333333328,42.230769230769226C1289.7222222222217,43.90384615384614,1299.1111111111106,89.5384615384615,1308.4999999999995,108.69230769230768C1317.8888888888885,127.84615384615385,1327.2777777777776,147.6923076923077,1336.6666666666663,157.1538461538462C1346.0555555555552,166.61538461538467,1355.4444444444441,153.92307692307693,1364.833333333333,165.46153846153845C1374.222222222222,177,1383.611111111111,201.46153846153848,1392.9999999999998,226.3846153846154C1402.3888888888887,251.3076923076923,1411.7777777777776,289.6730769230769,1421.1666666666665,315C1430.5555555555557,340.32692307692304,1439.9444444444443,369.2884615384616,1449.3333333333333,378.34615384615387C1458.7222222222224,387.4038461538462,1468.1111111111113,364.2692307692308,1477.5,369.34615384615387C1486.888888888889,374.42307692307696,1496.2777777777776,403.90384615384613,1505.6666666666667,408.8076923076923C1515.0555555555557,413.7115384615385,1524.4444444444443,405.2307692307693,1533.8333333333335,398.7692307692308C1543.2222222222224,392.3076923076923,1552.6111111111113,378.75000000000006,1562.0000000000002,370.03846153846155C1571.3888888888894,361.32692307692315,1580.777777777778,343.6730769230769,1590.166666666667,346.5C1599.5555555555559,349.3269230769231,1608.9444444444446,383.1923076923077,1618.3333333333337,387C1627.7222222222226,390.8076923076923,1637.1111111111115,386.7115384615385,1646.5000000000005,369.34615384615387C1655.8888888888896,351.9807692307693,1665.2777777777783,306.75,1674.6666666666672,282.8076923076923C1684.0555555555563,258.8653846153846,1693.4444444444453,244.3269230769231,1702.833333333334,225.6923076923077C1712.2222222222226,207.0576923076923,1721.6111111111115,169.09615384615384,1731.0000000000007,171C1740.3888888888896,172.90384615384616,1749.7777777777783,228.8653846153846,1759.1666666666674,237.1153846153846C1768.5555555555563,245.3653846153846,1777.9444444444453,212.4807692307692,1787.3333333333342,220.5C1796.7222222222233,228.5192307692308,1806.111111111112,264.8076923076923,1815.500000000001,285.2307692307692C1824.8888888888898,305.65384615384613,1834.277777777779,326.36538461538464,1843.6666666666677,343.03846153846155C1853.0555555555563,359.7115384615385,1862.4444444444455,376.2692307692308,1871.8333333333344,385.2692307692308C1881.2222222222235,394.2692307692308,1895.3055555555566,395.07692307692315,1900.0000000000011,397.03846153846155L1900,450Z" stroke-width="0" class="mtk-elevation-curve-fill" style="-webkit-tap-highlight-color: rgba(0, 0, 0, 0); pointer-events: none; transform: translate(0px, 20px);" fill-opacity=""></path><path fill="none" stroke="rgb(207,225,242)" d="M210,397.03846153846155C214.69444444444446,395.1346153846155,233.4722222222222,387.5192307692307,238.16666666666666,385.61538461538464C242.86111111111111,383.7115384615385,233.47222222222226,392.7115384615385,238.16666666666666,385.61538461538464C242.8611111111111,378.5192307692307,256.94444444444446,360.1153846153847,266.3333333333333,343.03846153846155C275.72222222222223,325.9615384615385,285.1111111111111,298.2115384615385,294.5,283.1538461538462C303.8888888888889,268.09615384615387,313.27777777777777,262.3269230769231,322.6666666666667,252.6923076923077C332.0555555555556,243.0576923076923,341.4444444444444,244.7307692307692,350.83333333333337,225.34615384615384C360.2222222222222,205.96153846153848,369.61111111111114,147.80769230769235,379,136.38461538461542C388.38888888888886,124.9615384615385,397.77777777777777,154.84615384615384,407.16666666666663,156.80769230769232C416.5555555555556,158.7692307692308,425.9444444444444,157.9038461538462,435.3333333333333,148.1538461538462C444.72222222222223,138.4038461538462,454.11111111111114,100.03846153846155,463.5,98.30769230769232C472.88888888888886,96.5769230769231,482.2777777777778,126.75,491.66666666666663,137.76923076923077C501.0555555555555,148.78846153846155,510.44444444444434,161.53846153846152,519.8333333333333,164.4230769230769C529.2222222222222,167.3076923076923,538.611111111111,159.05769230769232,548,155.0769230769231C557.388888888889,151.09615384615387,566.7777777777778,139.67307692307693,576.1666666666667,140.53846153846155C585.5555555555557,141.40384615384616,594.9444444444445,154.15384615384616,604.3333333333334,160.26923076923077C613.7222222222222,166.3846153846154,623.111111111111,169.1538461538461,632.5,177.23076923076923C641.8888888888888,185.3076923076923,651.2777777777777,197.1923076923077,660.6666666666667,208.73076923076923C670.0555555555557,220.26923076923072,679.4444444444447,229.96153846153845,688.8333333333335,246.46153846153845C698.2222222222223,262.96153846153845,707.6111111111112,290.71153846153845,717.0000000000001,307.7307692307692C726.388888888889,324.74999999999994,735.7777777777778,346.15384615384613,745.1666666666667,348.5769230769231C754.5555555555555,351,763.9444444444445,322.6730769230769,773.3333333333334,322.2692307692308C782.7222222222222,321.86538461538464,792.111111111111,345.6923076923078,801.5,346.1538461538462C810.8888888888888,346.6153846153847,820.2777777777778,330.2884615384615,829.6666666666666,325.03846153846155C839.0555555555555,319.78846153846155,848.4444444444445,323.36538461538464,857.8333333333333,314.6538461538462C867.2222222222222,305.94230769230774,876.611111111111,290.1346153846154,885.9999999999999,272.7692307692308C895.3888888888887,255.4038461538462,904.7777777777777,226.67307692307693,914.1666666666665,210.46153846153848C923.5555555555553,194.25000000000003,932.9444444444443,176.59615384615384,942.3333333333331,175.5C951.7222222222221,174.40384615384616,961.1111111111109,198,970.4999999999998,203.8846153846154C979.8888888888886,209.7692307692308,989.2777777777775,204.5192307692308,998.6666666666664,210.80769230769232C1008.0555555555552,217.0961538461538,1017.444444444444,231.28846153846155,1026.833333333333,241.6153846153846C1036.222222222222,251.94230769230765,1045.6111111111106,265.5,1054.9999999999995,272.7692307692308C1064.3888888888885,280.0384615384616,1073.7777777777776,273.9230769230769,1083.1666666666663,285.2307692307692C1092.5555555555552,296.5384615384615,1101.9444444444441,332.94230769230774,1111.333333333333,340.61538461538464C1120.722222222222,348.2884615384616,1130.1111111111106,346.9038461538462,1139.4999999999995,331.2692307692308C1148.8888888888885,315.6346153846154,1158.2777777777771,275.88461538461536,1167.666666666666,246.80769230769232C1177.055555555555,217.73076923076925,1186.4444444444437,190.2692307692308,1195.8333333333328,156.80769230769232C1205.2222222222217,123.34615384615387,1214.6111111111106,55.73076923076923,1223.9999999999995,46.03846153846155C1233.3888888888885,36.34615384615386,1242.7777777777771,99.28846153846159,1252.166666666666,98.65384615384619C1261.555555555555,98.01923076923079,1270.9444444444437,40.557692307692314,1280.3333333333328,42.230769230769226C1289.7222222222217,43.90384615384614,1299.1111111111106,89.5384615384615,1308.4999999999995,108.69230769230768C1317.8888888888885,127.84615384615385,1327.2777777777776,147.6923076923077,1336.6666666666663,157.1538461538462C1346.0555555555552,166.61538461538467,1355.4444444444441,153.92307692307693,1364.833333333333,165.46153846153845C1374.222222222222,177,1383.611111111111,201.46153846153848,1392.9999999999998,226.3846153846154C1402.3888888888887,251.3076923076923,1411.7777777777776,289.6730769230769,1421.1666666666665,315C1430.5555555555557,340.32692307692304,1439.9444444444443,369.2884615384616,1449.3333333333333,378.34615384615387C1458.7222222222224,387.4038461538462,1468.1111111111113,364.2692307692308,1477.5,369.34615384615387C1486.888888888889,374.42307692307696,1496.2777777777776,403.90384615384613,1505.6666666666667,408.8076923076923C1515.0555555555557,413.7115384615385,1524.4444444444443,405.2307692307693,1533.8333333333335,398.7692307692308C1543.2222222222224,392.3076923076923,1552.6111111111113,378.75000000000006,1562.0000000000002,370.03846153846155C1571.3888888888894,361.32692307692315,1580.777777777778,343.6730769230769,1590.166666666667,346.5C1599.5555555555559,349.3269230769231,1608.9444444444446,383.1923076923077,1618.3333333333337,387C1627.7222222222226,390.8076923076923,1637.1111111111115,386.7115384615385,1646.5000000000005,369.34615384615387C1655.8888888888896,351.9807692307693,1665.2777777777783,306.75,1674.6666666666672,282.8076923076923C1684.0555555555563,258.8653846153846,1693.4444444444453,244.3269230769231,1702.833333333334,225.6923076923077C1712.2222222222226,207.0576923076923,1721.6111111111115,169.09615384615384,1731.0000000000007,171C1740.3888888888896,172.90384615384616,1749.7777777777783,228.8653846153846,1759.1666666666674,237.1153846153846C1768.5555555555563,245.3653846153846,1777.9444444444453,212.4807692307692,1787.3333333333342,220.5C1796.7222222222233,228.5192307692308,1806.111111111112,264.8076923076923,1815.500000000001,285.2307692307692C1824.8888888888898,305.65384615384613,1834.277777777779,326.36538461538464,1843.6666666666677,343.03846153846155C1853.0555555555563,359.7115384615385,1862.4444444444455,376.2692307692308,1871.8333333333344,385.2692307692308C1881.2222222222235,394.2692307692308,1895.3055555555566,395.07692307692315,1900.0000000000011,397.03846153846155" stroke-width="6px" class="mtk-elevation-curve-stroke" style="-webkit-tap-highlight-color: rgba(0, 0, 0, 0); transform: translate(0px, 20px);"></path><path fill="none" stroke="#000000" d="M210,450L1900,450" class="mtk-elevation-x-axe" style="-webkit-tap-highlight-color: rgba(0, 0, 0, 0); transform: translate(0px, 20px);" stroke-width="3px"></path><path fill="none" stroke="#000000" d="M210,40L210,460" class="mtk-elevation-y-axe" style="-webkit-tap-highlight-color: rgba(0, 0, 0, 0); transform: translate(0px, 20px);" stroke-width="3px"></path><text x="210" y="465" text-anchor="middle" font-family="&quot;Arial&quot;" font-size="45" stroke="none" fill="#000000" class="mtk-elevation-x-axe-info mtk-elevation-axe-label mtk-elevation-text" style="dominant-baseline: hanging; pointer-events: none; transform: translate(0px, 20px); font-size: 45px;"><tspan style="-webkit-tap-highlight-color: rgba(0, 0, 0, 0);">km</tspan></text><text x="539.4447548881508" y="465" text-anchor="middle" font-family="&quot;Arial&quot;" font-size="45" stroke="none" fill="#000000" class="mtk-elevation-x-axe-label mtk-elevation-axe-label mtk-elevation-text" style="dominant-baseline: hanging; pointer-events: none; transform: translate(0px, 20px); font-size: 45px;"><tspan style="-webkit-tap-highlight-color: rgba(0, 0, 0, 0);">10</tspan></text><text x="868.8895097763015" y="465" text-anchor="middle" font-family="&quot;Arial&quot;" font-size="45" stroke="none" fill="#000000" class="mtk-elevation-x-axe-label mtk-elevation-axe-label mtk-elevation-text" style="dominant-baseline: hanging; pointer-events: none; transform: translate(0px, 20px); font-size: 45px;"><tspan style="-webkit-tap-highlight-color: rgba(0, 0, 0, 0);">20</tspan></text><text x="1198.3342646644505" y="465" text-anchor="middle" font-family="&quot;Arial&quot;" font-size="45" stroke="none" fill="#000000" class="mtk-elevation-x-axe-label mtk-elevation-axe-label mtk-elevation-text" style="dominant-baseline: hanging; pointer-events: none; transform: translate(0px, 20px); font-size: 45px;"><tspan style="-webkit-tap-highlight-color: rgba(0, 0, 0, 0);">30</tspan></text><text x="1527.779019552601" y="465" text-anchor="middle" font-family="&quot;Arial&quot;" font-size="45" stroke="none" fill="#000000" class="mtk-elevation-x-axe-label mtk-elevation-axe-label mtk-elevation-text" style="dominant-baseline: hanging; pointer-events: none; transform: translate(0px, 20px); font-size: 45px;"><tspan style="-webkit-tap-highlight-color: rgba(0, 0, 0, 0);">40</tspan></text><text x="1857.2237744407519" y="465" text-anchor="middle" font-family="&quot;Arial&quot;" font-size="45" stroke="none" fill="#000000" class="mtk-elevation-x-axe-label mtk-elevation-axe-label mtk-elevation-text" style="dominant-baseline: hanging; pointer-events: none; transform: translate(0px, 20px); font-size: 45px;"><tspan style="-webkit-tap-highlight-color: rgba(0, 0, 0, 0);">50</tspan></text><text x="195" y="415.3846153846154" text-anchor="end" font-family="&quot;Arial&quot;" font-size="45" stroke="none" fill="#000000" class="mtk-elevation-y-axe-label mtk-elevation-axe-label mtk-elevation-text" style="dominant-baseline: central; transform: translate(0px, 20px); font-size: 45px;"><tspan style="-webkit-tap-highlight-color: rgba(0, 0, 0, 0);">700</tspan></text><text x="195" y="276.92307692307674" text-anchor="end" font-family="&quot;Arial&quot;" font-size="45" stroke="none" fill="#000000" class="mtk-elevation-y-axe-label mtk-elevation-axe-label mtk-elevation-text" style="dominant-baseline: central; transform: translate(0px, 20px); font-size: 45px;"><tspan style="-webkit-tap-highlight-color: rgba(0, 0, 0, 0);">1100</tspan></text><text x="195" y="138.46153846153862" text-anchor="end" font-family="&quot;Arial&quot;" font-size="45" stroke="none" fill="#000000" class="mtk-elevation-y-axe-label mtk-elevation-axe-label mtk-elevation-text" style="dominant-baseline: central; transform: translate(0px, 20px); font-size: 45px;"><tspan style="-webkit-tap-highlight-color: rgba(0, 0, 0, 0);">1500</tspan></text><text x="190" y="35" text-anchor="end" font-family="&quot;Arial&quot;" font-size="45" stroke="none" fill="#000000" class="mtk-elevation-y-axe-info mtk-elevation-axe-label mtk-elevation-text" style="-webkit-tap-highlight-color: rgba(0, 0, 0, 0); text-anchor: end; font-family: Arial; font-size: 45px; cursor: default; transform: translate(0px, 20px);"><tspan style="-webkit-tap-highlight-color: rgba(0, 0, 0, 0);">m</tspan></text><circle cx="210" cy="397.03846153846155" r="12" fill="rgb(190,97,147)" stroke="rgb(190,97,147)" class="mtk-elevation-curve-start-point" style="-webkit-tap-highlight-color: rgba(0, 0, 0, 0); transform: translate(0px, 20px);" fill-opacity="0.85" stroke-opacity="0.85"></circle><text x="220" y="367.03846153846155" text-anchor="start" font-family="&quot;Arial&quot;" font-size="45" stroke="none" fill="#000000" class="mtk-elevation-curve-start-label mtk-elevation-text" style="-webkit-tap-highlight-color: rgba(0, 0, 0, 0); text-anchor: start; font-family: Arial; font-size: 45px; pointer-events: none; transform: translate(0px, 20px);" fill-opacity="1"><tspan style="-webkit-tap-highlight-color: rgba(0, 0, 0, 0);">753m</tspan></text><circle cx="1900" cy="397.03846153846155" r="12" fill="rgb(190,97,147)" stroke="rgb(190,97,147)" class="mtk-elevation-curve-end-point" style="-webkit-tap-highlight-color: rgba(0, 0, 0, 0); transform: translate(0px, 20px);" fill-opacity="0.85" stroke-opacity="0.85"></circle><text x="1890" y="367.03846153846155" text-anchor="end" font-family="&quot;Arial&quot;" font-size="45" stroke="none" fill="#000000" class="mtk-elevation-curve-end-label mtk-elevation-text" style="-webkit-tap-highlight-color: rgba(0, 0, 0, 0); text-anchor: end; font-family: Arial; font-size: 45px; transform: translate(0px, 20px);" fill-opacity="1"><tspan style="-webkit-tap-highlight-color: rgba(0, 0, 0, 0);">753m</tspan></text><circle cx="1280.662768031189" cy="42.230769230769226" r="12" fill="rgb(190,97,147)" stroke="rgb(190,97,147)" class="mtk-elevation-curve-top-point" style="-webkit-tap-highlight-color: rgba(0, 0, 0, 0); transform: translate(0px, 20px);" fill-opacity="0.85" stroke-opacity="0.85"></circle><text x="1235.662768031189" y="57.230769230769226" text-anchor="end" font-family="&quot;Arial&quot;" font-size="45" stroke="none" fill="#000000" class="mtk-elevation-curve-top-label mtk-elevation-text" style="-webkit-tap-highlight-color: rgba(0, 0, 0, 0); text-anchor: end; font-family: Arial; font-size: 45px; pointer-events: none; transform: translate(0px, 20px);" fill-opacity="1"><tspan style="-webkit-tap-highlight-color: rgba(0, 0, 0, 0);">1778m</tspan></text></svg>