<svg xmlns="http://www.w3.org/2000/svg" viewBox="0 0 1000 254.7"><path fill="#022169" d="M526.9 186.4c-3.5-.1-6.4-2.9-6.4-6.4v-68.6c0-12.4-7.9-21-26.3-21-11.7 0-20.6 1-27.2 3.3V180c-.1 3.5-2.9 6.4-6.5 6.4h-15.3c-3.5-.2-6.2-3-6.2-6.4V84.2c0-5 1.2-7.2 6-9.3 10.2-4.8 33.5-7.9 50-7.9 39 0 53.5 15.1 53.5 42.8V180c-.1 3.5-2.9 6.4-6.4 6.4h-15.2zM655.5 75.8c.2-3.5 3-6.3 6.5-6.4h15.1c3.6.1 6.5 2.9 6.7 6.4V131c0 45.2-22.9 57.9-56.2 57.9-33 0-55.9-12.7-55.9-57.9V75.8c.1-3.5 2.9-6.4 6.4-6.4h15.1c3.5.1 6.4 2.9 6.4 6.4V131c0 21 4.3 34.4 28 34.4 23.9 0 28-13.4 28-34.4l-.1-55.2zM748 186.4c-8.8 0-11.5-1.9-14.6-10.2l-36.3-98.5c-.3-.9-.4-1.7-.5-2.6-.1-3.1 2.4-5.7 5.5-5.7h18.2c4.3 0 6 2.4 7.2 5.5l32.3 88.2 31.7-88.4c1.2-3.1 2.9-5.3 7.2-5.3h15.5c3-.1 5.5 2.3 5.6 5.2v.3c0 .9-.2 1.8-.5 2.6l-36.6 98.7c-3.1 8.6-5 10.2-13.9 10.2H748zm92.8 0c-3.5-.1-6.4-2.9-6.4-6.4V75.8c.1-3.5 2.9-6.4 6.4-6.4h15.1c3.5.1 6.4 2.9 6.4 6.4V180c-.1 3.5-2.9 6.4-6.4 6.4h-15.1zm135.5 0c-4.3 0-6-2.4-7.2-5.5l-6.5-17.7h-51.4l-6.2 17.9c-1 3.1-2.9 5.3-7.2 5.3h-15.5c-3 0-5.5-2.4-5.5-5.4v-.3c0-.8.2-1.6.5-2.4l34.9-94.2c4.5-12.4 9.1-17.2 25.1-17.2 16.5 0 23 4.5 27.5 17.2l34.7 93.9c.4.8.5 1.7.5 2.6 0 3.3-2.2 5.7-5.5 5.7h-18.2zm-39.2-96l-17.5 49.5h35.1l-17.6-49.5z"/><path fill="#E2231B" d="M180.4 56.1c39.7 0 71.8 32.2 71.8 71.8h1.3C254.2 57.9 197.9.6 127.9 0S.6 55.6 0 125.6v2.3h108.6c0-39.7 32.2-71.8 71.8-71.8"/><path fill="#022169" d="M180.4 199.8c-39.7 0-71.8-32.2-71.8-71.8h-1.3c0 70 56.7 126.8 126.7 126.8S360.9 198 360.9 128v-.1H252.3c0 39.7-32.2 71.9-71.9 71.9"/></svg>